<svg width="269" height="271" viewBox="0 0 269 271" fill="none" xmlns="http://www.w3.org/2000/svg">
<rect y="148.176" width="173.242" height="173.242" rx="15" transform="rotate(-44.8483 0 148.176)" fill="black"/>
<path d="M147.692 165.988H166.923C166.308 172.552 164.256 178.404 160.769 183.545C157.282 188.64 152.385 192.656 146.077 195.594C139.769 198.531 132.103 200 123.077 200C116.154 200 109.923 198.898 104.385 196.695C98.8462 194.446 94.1026 191.279 90.1538 187.194C86.2051 183.063 83.1795 178.083 81.0769 172.253C79.0256 166.424 78 159.906 78 152.7V144.369C78 137.163 79.0513 130.645 81.1538 124.816C83.3077 118.986 86.3846 114.006 90.3846 109.875C94.3846 105.698 99.1795 102.508 104.769 100.305C110.41 98.1016 116.744 97 123.769 97C132.692 97 140.231 98.4688 146.385 101.406C152.538 104.344 157.308 108.406 160.692 113.593C164.128 118.78 166.231 124.724 167 131.425H147.769C147.256 127.111 146.128 123.416 144.385 120.34C142.692 117.265 140.179 114.924 136.846 113.318C133.513 111.665 129.154 110.839 123.769 110.839C119.359 110.839 115.513 111.573 112.231 113.042C108.949 114.511 106.205 116.668 104 119.514C101.795 122.36 100.128 125.871 99 130.048C97.9231 134.179 97.3846 138.907 97.3846 144.231V152.7C97.3846 157.749 97.8718 162.339 98.8462 166.47C99.8718 170.555 101.41 174.066 103.462 177.004C105.564 179.942 108.231 182.214 111.462 183.82C114.692 185.427 118.564 186.23 123.077 186.23C128.564 186.23 133 185.45 136.385 183.889C139.821 182.328 142.41 180.056 144.154 177.073C145.949 174.043 147.128 170.348 147.692 165.988Z" fill="#4A90D9"/>
<path d="M189.13 135V135.5H189.63H212.37H212.87V135V79.8697H268H268.5V79.3697V56.6303V56.1303H268H212.87V1V0.5H212.37H189.63H189.13V1V56.1303H134H133.5V56.6303V79.3697V79.8697H134H189.13V135Z" fill="#4A90D9" stroke="black"/>
</svg>
