<svg width="49" height="36" viewBox="0 0 49 36" fill="none" xmlns="http://www.w3.org/2000/svg">
<g id="addActor_Icon">
<g id="Vector">
<path d="M46.7977 12.2143H42.393V7.5C42.393 6.1965 41.4086 5.14286 40.1907 5.14286C38.9728 5.14286 37.9884 6.1965 37.9884 7.5V12.2143H33.5837C32.3658 12.2143 31.3814 13.2679 31.3814 14.5714C31.3814 15.8749 32.3658 16.9286 33.5837 16.9286H37.9884V21.6429C37.9884 22.9464 38.9728 24 40.1907 24C41.4086 24 42.393 22.9464 42.393 21.6429V16.9286H46.7977C48.0156 16.9286 49 15.8749 49 14.5714C49 13.2679 48.0156 12.2143 46.7977 12.2143Z" fill="black"/>
<path d="M18.8841 23.5714C21.9255 23.5714 24.6785 22.2514 26.6716 20.1182C28.6625 17.9874 29.8958 15.0409 29.8958 11.7857C29.8958 8.5305 28.6625 5.58407 26.6716 3.45321C24.6785 1.32 21.9255 0 18.8841 0C15.8427 0 13.0898 1.32 11.0967 3.45321C9.10578 5.58407 7.87247 8.5305 7.87247 11.7857C7.87247 15.0409 9.10578 17.9874 11.0967 20.1182C13.0898 22.2514 15.8427 23.5714 18.8841 23.5714Z" fill="black"/>
<path d="M19.2345 36C30.5124 36 38.4691 33.7143 38.4691 31.4286C38.4691 26.8571 30.9227 22.2857 19.2345 22.2857C7.21296 22.2857 0 26.8571 0 31.4286C0 33.7143 7.21296 36 19.2345 36Z" fill="black"/>
</g>
</g>
</svg>
