<svg width="51" height="45" viewBox="0 0 51 45" fill="none" xmlns="http://www.w3.org/2000/svg">
<g id="Vector">
<path d="M48.2527 15.2679H43.7582V9.375C43.7582 7.74563 42.7536 6.42857 41.5109 6.42857C40.2682 6.42857 39.2636 7.74563 39.2636 9.375V15.2679H34.7691C33.5263 15.2679 32.5218 16.5849 32.5218 18.2143C32.5218 19.8437 33.5263 21.1607 34.7691 21.1607H39.2636V27.0536C39.2636 28.6829 40.2682 30 41.5109 30C42.7536 30 43.7582 28.6829 43.7582 27.0536V21.1607H48.2527C49.4955 21.1607 50.5 19.8437 50.5 18.2143C50.5 16.5849 49.4955 15.2679 48.2527 15.2679Z" fill="black"/>
<path d="M19.7695 29.4643C22.873 29.4643 25.6821 27.8143 27.7159 25.1478C29.7474 22.4842 31.0059 18.8012 31.0059 14.7321C31.0059 10.6631 29.7474 6.98009 27.7159 4.31652C25.6821 1.65 22.873 0 19.7695 0C16.666 0 13.8569 1.65 11.8231 4.31652C9.79161 6.98009 8.53314 10.6631 8.53314 14.7321C8.53314 18.8012 9.79161 22.4842 11.8231 25.1478C13.8569 27.8143 16.666 29.4643 19.7695 29.4643Z" fill="black"/>
<path d="M20.1271 45C31.6351 45 39.7542 42.1429 39.7542 39.2857C39.7542 33.5714 32.0538 27.8571 20.1271 27.8571C7.86016 27.8571 0.5 33.5714 0.5 39.2857C0.5 42.1429 7.86016 45 20.1271 45Z" fill="black"/>
</g>
</svg>
