<svg width="32" height="32" viewBox="0 0 32 32" fill="none" xmlns="http://www.w3.org/2000/svg">
<g id="Bell">
<path id="Icon" d="M18.3067 28.0013C18.0723 28.4054 17.7358 28.7408 17.331 28.974C16.9261 29.2072 16.4672 29.3299 16 29.3299C15.5328 29.3299 15.0739 29.2072 14.669 28.974C14.2642 28.7408 13.9277 28.4054 13.6933 28.0013M24 10.668C24 8.54624 23.1571 6.51141 21.6569 5.01111C20.1566 3.51082 18.1217 2.66797 16 2.66797C13.8783 2.66797 11.8434 3.51082 10.3431 5.01111C8.84286 6.51141 8 8.54624 8 10.668C8 20.0013 4 22.668 4 22.668H28C28 22.668 24 20.0013 24 10.668Z" stroke="#1E1E1E" stroke-width="4" stroke-linecap="round" stroke-linejoin="round"/>
</g>
</svg>
