<svg width="30" height="25" viewBox="0 0 30 25" fill="none" xmlns="http://www.w3.org/2000/svg">
<g id="Formatting">
<path id="Vector" d="M18.5382 12.3C19.128 12.0018 19.6257 11.5934 19.9916 11.1073C20.3576 10.6212 20.5817 10.0708 20.6461 9.5C20.6572 8.98388 20.5458 8.471 20.3182 7.99063C20.0906 7.51027 19.7512 7.07184 19.3195 6.70039C18.8877 6.32894 18.3721 6.03174 17.8019 5.82578C17.2318 5.61981 16.6184 5.50911 15.9968 5.5H8.17969V19.5H16.6111C17.2026 19.4948 17.7872 19.3929 18.3313 19.2001C18.8755 19.0073 19.3685 18.7274 19.7824 18.3764C20.1962 18.0253 20.5227 17.6101 20.7432 17.1543C20.9638 16.6985 21.074 16.2112 21.0676 15.72V15.6C21.0681 14.9071 20.8303 14.2285 20.3822 13.644C19.9341 13.0594 19.2944 12.5931 18.5382 12.3ZM10.5886 7.5H15.6475C16.1608 7.48681 16.6667 7.60428 17.0973 7.83665C17.5279 8.06902 17.8626 8.40517 18.0564 8.8C18.2526 9.32779 18.1892 9.89859 17.88 10.3877C17.5708 10.8767 17.0409 11.2443 16.4063 11.41C16.1598 11.47 15.9043 11.5003 15.6475 11.5H10.5886V7.5ZM16.1293 17.5H10.5886V13.5H16.1293C16.6426 13.4868 17.1485 13.6043 17.5791 13.8367C18.0097 14.069 18.3444 14.4052 18.5382 14.8C18.7344 15.3278 18.671 15.8986 18.3618 16.3877C18.0525 16.8767 17.5227 17.2443 16.8881 17.41C16.6416 17.47 16.3861 17.5003 16.1293 17.5Z" fill="black"/>
</g>
</svg>
