<svg width="265" height="265" viewBox="0 0 265 265" fill="none" xmlns="http://www.w3.org/2000/svg">
<g filter="url(#filter0_d_45_1007)">
<rect y="128.176" width="173.242" height="173.242" rx="15" transform="rotate(-44.8483 0 128.176)" fill="black"/>
<path d="M147.692 145.988H166.923C166.308 152.552 164.256 158.404 160.769 163.545C157.282 168.64 152.385 172.656 146.077 175.594C139.769 178.531 132.103 180 123.077 180C116.154 180 109.923 178.898 104.385 176.695C98.8462 174.446 94.1026 171.279 90.1538 167.194C86.2051 163.063 83.1795 158.083 81.0769 152.253C79.0256 146.424 78 139.906 78 132.7V124.369C78 117.163 79.0513 110.645 81.1538 104.816C83.3077 98.9862 86.3846 94.006 90.3846 89.875C94.3846 85.6981 99.1795 82.508 104.769 80.3048C110.41 78.1016 116.744 77 123.769 77C132.692 77 140.231 78.4688 146.385 81.4064C152.538 84.344 157.308 88.4062 160.692 93.5929C164.128 98.7796 166.231 104.724 167 111.425H147.769C147.256 107.111 146.128 103.416 144.385 100.34C142.692 97.2649 140.179 94.924 136.846 93.3175C133.513 91.6651 129.154 90.8389 123.769 90.8389C119.359 90.8389 115.513 91.5733 112.231 93.0421C108.949 94.5109 106.205 96.6682 104 99.514C101.795 102.36 100.128 105.871 99 110.048C97.9231 114.179 97.3846 118.907 97.3846 124.231V132.7C97.3846 137.749 97.8718 142.339 98.8462 146.47C99.8718 150.555 101.41 154.066 103.462 157.004C105.564 159.942 108.231 162.214 111.462 163.82C114.692 165.427 118.564 166.23 123.077 166.23C128.564 166.23 133 165.45 136.385 163.889C139.821 162.328 142.41 160.056 144.154 157.073C145.949 154.043 147.128 150.348 147.692 145.988Z" fill="#4A90D9"/>
</g>
<defs>
<filter id="filter0_d_45_1007" x="-6.2" y="-6.2" width="277.4" height="277.4" filterUnits="userSpaceOnUse" color-interpolation-filters="sRGB">
<feFlood flood-opacity="0" result="BackgroundImageFix"/>
<feColorMatrix in="SourceAlpha" type="matrix" values="0 0 0 0 0 0 0 0 0 0 0 0 0 0 0 0 0 0 127 0" result="hardAlpha"/>
<feOffset dx="10" dy="4"/>
<feGaussianBlur stdDeviation="8.1"/>
<feComposite in2="hardAlpha" operator="out"/>
<feColorMatrix type="matrix" values="0 0 0 0 0 0 0 0 0 0 0 0 0 0 0 0 0 0 0.25 0"/>
<feBlend mode="normal" in2="BackgroundImageFix" result="effect1_dropShadow_45_1007"/>
<feBlend mode="normal" in="SourceGraphic" in2="effect1_dropShadow_45_1007" result="shape"/>
</filter>
</defs>
</svg>
