<svg width="240" height="240" viewBox="0 0 240 240" fill="none" xmlns="http://www.w3.org/2000/svg">
<circle cx="120" cy="120" r="120" fill="#FFD541"/>
<circle cx="120" cy="120" r="120" fill="url(#paint0_radial_279_4637)" fill-opacity="0.2"/>
<path d="M68.475 126.906H77.8187C77.6312 129.969 76.7875 132.688 75.2875 135.062C73.8083 137.438 71.7354 139.292 69.0687 140.625C66.4229 141.958 63.2354 142.625 59.5062 142.625C56.5896 142.625 53.975 142.125 51.6625 141.125C49.35 140.104 47.3708 138.646 45.725 136.75C44.1 134.854 42.8604 132.562 42.0062 129.875C41.1521 127.188 40.725 124.177 40.725 120.844V117.688C40.725 114.354 41.1625 111.344 42.0375 108.656C42.9333 105.948 44.2042 103.646 45.85 101.75C47.5167 99.8542 49.5062 98.3958 51.8187 97.375C54.1312 96.3542 56.7146 95.8438 59.5687 95.8438C63.3604 95.8438 66.5583 96.5312 69.1625 97.9062C71.7875 99.2812 73.8187 101.177 75.2562 103.594C76.7146 106.01 77.5896 108.76 77.8812 111.844H68.5062C68.4021 110.01 68.0375 108.458 67.4125 107.188C66.7875 105.896 65.8396 104.927 64.5687 104.281C63.3187 103.615 61.6521 103.281 59.5687 103.281C58.0062 103.281 56.6417 103.573 55.475 104.156C54.3083 104.74 53.3292 105.625 52.5375 106.812C51.7458 108 51.1521 109.5 50.7562 111.312C50.3812 113.104 50.1937 115.208 50.1937 117.625V120.844C50.1937 123.198 50.3708 125.271 50.725 127.062C51.0792 128.833 51.6208 130.333 52.35 131.562C53.1 132.771 54.0583 133.688 55.225 134.312C56.4125 134.917 57.8396 135.219 59.5062 135.219C61.4646 135.219 63.0792 134.906 64.35 134.281C65.6208 133.656 66.5896 132.729 67.2562 131.5C67.9437 130.271 68.35 128.74 68.475 126.906ZM121.45 118.188V120.344C121.45 123.802 120.981 126.906 120.044 129.656C119.106 132.406 117.783 134.75 116.075 136.688C114.367 138.604 112.325 140.073 109.95 141.094C107.596 142.115 104.981 142.625 102.106 142.625C99.2521 142.625 96.6375 142.115 94.2625 141.094C91.9083 140.073 89.8667 138.604 88.1375 136.688C86.4083 134.75 85.0646 132.406 84.1062 129.656C83.1687 126.906 82.7 123.802 82.7 120.344V118.188C82.7 114.708 83.1687 111.604 84.1062 108.875C85.0437 106.125 86.3667 103.781 88.075 101.844C89.8042 99.9062 91.8458 98.4271 94.2 97.4062C96.575 96.3854 99.1896 95.875 102.044 95.875C104.919 95.875 107.533 96.3854 109.887 97.4062C112.262 98.4271 114.304 99.9062 116.012 101.844C117.742 103.781 119.075 106.125 120.012 108.875C120.971 111.604 121.45 114.708 121.45 118.188ZM111.981 120.344V118.125C111.981 115.708 111.762 113.583 111.325 111.75C110.887 109.917 110.242 108.375 109.387 107.125C108.533 105.875 107.492 104.938 106.262 104.312C105.033 103.667 103.627 103.344 102.044 103.344C100.46 103.344 99.0542 103.667 97.825 104.312C96.6167 104.938 95.5854 105.875 94.7312 107.125C93.8979 108.375 93.2625 109.917 92.825 111.75C92.3875 113.583 92.1687 115.708 92.1687 118.125V120.344C92.1687 122.74 92.3875 124.865 92.825 126.719C93.2625 128.552 93.9083 130.104 94.7625 131.375C95.6167 132.625 96.6583 133.573 97.8875 134.219C99.1167 134.865 100.523 135.188 102.106 135.188C103.69 135.188 105.096 134.865 106.325 134.219C107.554 133.573 108.585 132.625 109.419 131.375C110.252 130.104 110.887 128.552 111.325 126.719C111.762 124.865 111.981 122.74 111.981 120.344ZM142.269 142H132.362L132.425 134.688H142.269C144.727 134.688 146.8 134.135 148.487 133.031C150.175 131.906 151.446 130.271 152.3 128.125C153.175 125.979 153.612 123.385 153.612 120.344V118.125C153.612 115.792 153.362 113.74 152.862 111.969C152.383 110.198 151.665 108.708 150.706 107.5C149.748 106.292 148.571 105.385 147.175 104.781C145.779 104.156 144.175 103.844 142.362 103.844H132.175V96.5H142.362C145.404 96.5 148.185 97.0208 150.706 98.0625C153.248 99.0833 155.446 100.552 157.3 102.469C159.154 104.385 160.581 106.677 161.581 109.344C162.602 111.99 163.112 114.938 163.112 118.188V120.344C163.112 123.573 162.602 126.521 161.581 129.188C160.581 131.854 159.154 134.146 157.3 136.062C155.467 137.958 153.269 139.427 150.706 140.469C148.165 141.49 145.352 142 142.269 142ZM137.675 96.5V142H128.3V96.5H137.675ZM200.556 134.688V142H176.337V134.688H200.556ZM179.4 96.5V142H170.025V96.5H179.4ZM197.4 115.031V122.156H176.337V115.031H197.4ZM200.525 96.5V103.844H176.337V96.5H200.525Z" fill="black"/>
<defs>
<radialGradient id="paint0_radial_279_4637" cx="0" cy="0" r="1" gradientUnits="userSpaceOnUse" gradientTransform="translate(120 120) rotate(90) scale(120)">
<stop stop-color="#FF7C7C" stop-opacity="0"/>
<stop offset="1" stop-color="#FF7C7C" stop-opacity="0.64"/>
</radialGradient>
</defs>
</svg>
