<svg width="49" height="43" viewBox="0 0 49 43" fill="none" xmlns="http://www.w3.org/2000/svg">
<path id="heart_icon" d="M22.3499 7.72565L24.5 11.3495L26.6501 7.72565C28.5646 4.49869 31.892 2.5 35.6364 2.5C41.4436 2.5 46.5 7.66288 46.5 14.3333C46.5 17.2154 45.2578 20.3043 43.1081 23.4484C40.9725 26.5719 38.0765 29.5515 35.101 32.1626C32.1363 34.7643 29.1599 36.9419 26.9188 38.4716C25.953 39.1307 25.1281 39.6667 24.5049 40.0615C23.881 39.6635 23.0546 39.1231 22.0869 38.4587C19.845 36.9193 16.8675 34.7301 13.9016 32.1201C10.9249 29.5006 8.0274 26.5162 5.89077 23.3964C3.73892 20.2543 2.5 17.1817 2.5 14.3333C2.5 7.66288 7.5564 2.5 13.3636 2.5C17.108 2.5 20.4354 4.49869 22.3499 7.72565Z" stroke="#F44336" stroke-width="5"/>
</svg>
