<svg width="85" height="85" viewBox="0 0 85 85" fill="none" xmlns="http://www.w3.org/2000/svg">
<path id="icon" d="M16.3896 63.5458C19.9667 60.8104 23.9646 58.6536 28.3833 57.0755C32.8021 55.4974 37.4313 54.7083 42.2708 54.7083C47.1104 54.7083 51.7396 55.4974 56.1583 57.0755C60.5771 58.6536 64.575 60.8104 68.1521 63.5458C70.6069 60.6701 72.5182 57.4087 73.8859 53.7615C75.2536 50.1142 75.9375 46.2215 75.9375 42.0833C75.9375 32.7549 72.6585 24.8116 66.1005 18.2536C59.5425 11.6957 51.5993 8.41667 42.2708 8.41667C32.9424 8.41667 24.9991 11.6957 18.4411 18.2536C11.8832 24.8116 8.60417 32.7549 8.60417 42.0833C8.60417 46.2215 9.28802 50.1142 10.6557 53.7615C12.0234 57.4087 13.9347 60.6701 16.3896 63.5458ZM42.2708 46.2917C38.1326 46.2917 34.6432 44.8714 31.8026 42.0307C28.962 39.1901 27.5417 35.7007 27.5417 31.5625C27.5417 27.4243 28.962 23.9349 31.8026 21.0943C34.6432 18.2536 38.1326 16.8333 42.2708 16.8333C46.409 16.8333 49.8984 18.2536 52.7391 21.0943C55.5797 23.9349 57 27.4243 57 31.5625C57 35.7007 55.5797 39.1901 52.7391 42.0307C49.8984 44.8714 46.409 46.2917 42.2708 46.2917ZM42.2708 84.1667C36.4493 84.1667 30.9785 83.062 25.8583 80.8526C20.7382 78.6432 16.2844 75.6448 12.4969 71.8573C8.70937 68.0698 5.71094 63.616 3.50156 58.4958C1.29219 53.3757 0.1875 47.9049 0.1875 42.0833C0.1875 36.2618 1.29219 30.791 3.50156 25.6708C5.71094 20.5507 8.70937 16.0969 12.4969 12.3094C16.2844 8.52187 20.7382 5.52344 25.8583 3.31406C30.9785 1.10469 36.4493 0 42.2708 0C48.0924 0 53.5632 1.10469 58.6833 3.31406C63.8035 5.52344 68.2573 8.52187 72.0448 12.3094C75.8323 16.0969 78.8307 20.5507 81.0401 25.6708C83.2495 30.791 84.3542 36.2618 84.3542 42.0833C84.3542 47.9049 83.2495 53.3757 81.0401 58.4958C78.8307 63.616 75.8323 68.0698 72.0448 71.8573C68.2573 75.6448 63.8035 78.6432 58.6833 80.8526C53.5632 83.062 48.0924 84.1667 42.2708 84.1667Z" fill="#1D1B20"/>
</svg>
