<svg width="42" height="43" viewBox="0 0 42 43" fill="none" xmlns="http://www.w3.org/2000/svg">
<g id="Content">
<path id="Vector" d="M24.898 19.7751L31.462 28.4119H10.7337L15.9157 21.6752L19.5432 26.3391L24.5525 19.7751H24.898ZM15.052 19.7751C16.4339 19.7751 17.6431 18.566 17.6431 17.1841C17.6431 15.8022 16.4339 14.593 15.052 14.593C13.6702 14.593 12.461 15.8022 12.461 17.1841C12.461 18.566 13.6702 19.7751 15.052 19.7751ZM38.3714 11.1383V31.8666C38.3714 33.7667 36.8168 35.3213 34.9167 35.3213H7.27894C5.37884 35.3213 3.82422 33.7667 3.82422 31.8666V11.1383C3.82422 9.23822 5.37884 7.68359 7.27894 7.68359H34.9167C36.8168 7.68359 38.3714 9.23822 38.3714 11.1383ZM34.9167 15.9749V11.1383H7.27894V31.8666H34.9167V15.9749Z" fill="black"/>
</g>
</svg>
