<svg width="30" height="25" viewBox="0 0 30 25" fill="none" xmlns="http://www.w3.org/2000/svg">
<g id="Formatting">
<path id="Vector" d="M14.7045 9.5H17.1135L14.4636 19.5H12.0547L14.7045 9.5ZM16.7281 5.5C16.4899 5.5 16.257 5.55865 16.0589 5.66853C15.8608 5.77841 15.7064 5.93459 15.6153 6.11732C15.5241 6.30004 15.5003 6.50111 15.5467 6.69509C15.5932 6.88907 15.7079 7.06725 15.8764 7.20711C16.0448 7.34696 16.2594 7.4422 16.4931 7.48079C16.7267 7.51937 16.9689 7.49957 17.189 7.42388C17.4091 7.34819 17.5972 7.22002 17.7296 7.05557C17.8619 6.89112 17.9326 6.69778 17.9326 6.5C17.9326 6.23478 17.8057 5.98043 17.5798 5.79289C17.3539 5.60536 17.0475 5.5 16.7281 5.5Z" fill="black"/>
</g>
</svg>
