<svg width="42" height="43" viewBox="0 0 42 43" fill="none" xmlns="http://www.w3.org/2000/svg">
<g id="Content">
<path id="Vector" d="M19.4564 30.1369H12.5469C10.2563 30.1369 8.05953 29.2269 6.43981 27.6072C4.8201 25.9875 3.91016 23.7907 3.91016 21.5001C3.91016 19.2095 4.8201 17.0127 6.43981 15.3929C8.05953 13.7732 10.2563 12.8633 12.5469 12.8633H19.4564V16.318H12.5469C11.1726 16.318 9.8545 16.864 8.88267 17.8358C7.91084 18.8076 7.36487 20.1257 7.36487 21.5001C7.36487 22.8744 7.91084 24.1925 8.88267 25.1644C9.8545 26.1362 11.1726 26.6821 12.5469 26.6821H19.4564V30.1369ZM29.8205 12.8633H22.9111V16.318H29.8205C31.1949 16.318 32.513 16.864 33.4848 17.8358C34.4566 18.8076 35.0026 20.1257 35.0026 21.5001C35.0026 22.8744 34.4566 24.1925 33.4848 25.1644C32.513 26.1362 31.1949 26.6821 29.8205 26.6821H22.9111V30.1369H29.8205C32.1111 30.1369 34.308 29.2269 35.9277 27.6072C37.5474 25.9875 38.4573 23.7907 38.4573 21.5001C38.4573 19.2095 37.5474 17.0127 35.9277 15.3929C34.308 13.7732 32.1111 12.8633 29.8205 12.8633ZM28.0932 19.7727H14.2743V23.2274H28.0932V19.7727Z" fill="black"/>
</g>
</svg>
