<svg width="149" height="168" viewBox="0 0 149 168" fill="none" xmlns="http://www.w3.org/2000/svg">
<path d="M74.2773 106.713V145L124.194 106.713H74.2773Z" fill="#5A6D7E"/>
<path d="M74.2812 106.713V145L24.9447 106.713H74.2812Z" fill="#333333"/>
<path d="M74.2773 38.8359H24.9408V106.709L35.356 136.941L42.7996 131.052L70.0928 109.731L74.2773 106.713V38.8359Z" fill="#333333"/>
<path d="M124.197 38.8359H74.2803V106.709H119.407V110.281L124.197 106.709V38.8359Z" fill="#333333"/>
<path d="M124.197 38.8379V0.550781L74.2535 38.8379H124.197Z" fill="#A54344"/>
<path d="M74.2773 55.6604L70.2143 51.0195L70.0928 60.135V88.8949L74.2773 89.3066V55.6604Z" fill="#D7A700"/>
<path d="M78.3457 51.0195L74.2827 55.6604V89.3066H78.3457V51.0195Z" fill="#D7A700"/>
<path d="M78.3457 55.6602L74.2827 58.2706L70.2197 55.6602L73.1218 89.3064L75.4436 89.3064L78.3457 55.6602Z" fill="#E1E1E1"/>
<path d="M74.2773 38.8371L74.2771 0.550781L24.6532 38.8379L74.2773 38.8371Z" fill="#333333"/>
<path d="M119.398 38.8359H110.112V117.495L119.398 110.406V38.8359Z" fill="#AFAFAF"/>
<path d="M110.332 0L106.92 2.72024L102.938 6.14031V122.991L110.332 117.411V0Z" fill="#83ABD3"/>
<path d="M103.307 5.85156L92.7616 14.571V130.772L103.307 122.713V5.85156Z" fill="#E1E1E1"/>
<path d="M70.0938 3.77344L63.2705 8.97368V115.001L70.0938 109.731V3.77344Z" fill="#83AAD3"/>
<path d="M63.2695 9L52.7245 16.7923V122.681L63.2695 114.62V9Z" fill="#E1E1E1"/>
<path d="M52.7246 37.1289L42.7998 43.7972V131.052L52.7246 123.373V37.1289Z" fill="#333333"/>
<path d="M35.3848 35.3594H24.937V145L30.1609 140.939L35.3848 136.942V35.3594Z" fill="#5A6D7E"/>
<path d="M80.6657 68.4288L116.652 48.125V69.9581L80.6657 89.8927V68.4288Z" fill="#A54344"/>
<path d="M67.8957 68.4209L32.0859 49.2773L31.8738 70.3133L67.8957 89.8849L67.8957 68.4209Z" fill="#D7A700"/>
<path d="M64.9935 73.0649L42.1992 64.3633L41.548 71.4087L64.4131 80.0262L64.9935 73.0649Z" fill="#A54344"/>
<path d="M83.6724 73.9668L105.465 63.5078L106.672 70.4796L84.5126 80.8833L83.6724 73.9668Z" fill="#D7A700"/>
<path d="M134.18 19.6922L134.18 12.4407L139.869 8.08984L139.869 32.1693L78.3429 60.2995L78.3429 48.1173L134.18 19.6922Z" fill="#D7A700"/>
<path d="M139.869 22.8867L139.869 27.8168L78.3435 55.6629L78.3433 51.0217L139.869 22.8867Z" fill="#E1E1E1"/>
<path d="M14.4371 20.7228L14.4371 13.8918L8.69141 10.1211L8.69151 33.1391L70.2173 60.3014L70.2173 48.0827L14.4371 20.7228Z" fill="#A54344"/>
<path d="M8.69109 23.7549L8.69202 28.6875L70.2126 55.662L70.2131 51.0218L8.69109 23.7549Z" fill="#E1E1E1"/>
<path d="M78.3375 88.8788L74.2805 88.879L74.2671 94.1559L92.3304 102.065L96.3413 96.7357L78.3375 88.8788Z" fill="#5A6D7E"/>
<path d="M70.2256 88.8783L74.2815 88.8797L74.2816 94.1559L56.2183 102.065L52.2464 96.7875L70.2256 88.8783Z" fill="#333333"/>
<path d="M76.6018 99.1624L92.2734 102.063L74.2801 93.9414L55.9966 102.063L71.9584 99.1624L74.2801 102.063L76.6018 99.1624Z" fill="#E1E1E1"/>
<path d="M25 167.76V146.186H30.4619V156.361L39.4524 146.186H44.5277L36.7939 155.695L45.7844 167.76H40.4675L32.9754 157.639L30.4619 160.143V167.76H25Z" fill="#A54344"/>
<path d="M58.0877 168C55.4454 168 53.3347 167.716 51.7557 167.148C50.1768 166.579 49.0489 165.772 48.3722 164.724C47.6955 163.659 47.3572 162.416 47.3572 160.995V152.818C47.3572 151.398 47.6955 150.182 48.3722 149.169C49.0812 148.14 50.209 147.358 51.7557 146.826C53.3347 146.275 55.4454 146 58.0877 146C60.7301 146 62.8246 146.275 64.3714 146.826C65.9181 147.376 67.0299 148.157 67.7066 149.169C68.4155 150.182 68.7699 151.398 68.7699 152.818V161.022C68.7699 162.425 68.4155 163.65 67.7066 164.697C67.0299 165.745 65.9181 166.562 64.3714 167.148C62.8246 167.716 60.7301 168 58.0877 168ZM58.0877 165.63C59.5378 165.63 60.6334 165.47 61.3746 165.15C62.1157 164.813 62.6152 164.351 62.873 163.765C63.1308 163.161 63.2597 162.46 63.2597 161.661V152.206C63.2597 151.407 63.1308 150.723 62.873 150.155C62.6152 149.569 62.1157 149.125 61.3746 148.823C60.6334 148.504 59.5378 148.344 58.0877 148.344C56.6377 148.344 55.5259 148.504 54.7526 148.823C54.0114 149.125 53.5119 149.569 53.2542 150.155C52.9964 150.723 52.8675 151.407 52.8675 152.206V161.661C52.8675 162.46 52.9964 163.161 53.2542 163.765C53.5119 164.351 54.0114 164.813 54.7526 165.15C55.5259 165.47 56.6377 165.63 58.0877 165.63Z" fill="#A54344"/>
<path d="M74.1382 167.76V146.186H82.6453C85.5455 146.186 87.8334 146.435 89.509 146.932C91.2169 147.412 92.4253 148.14 93.1342 149.116C93.8754 150.093 94.2459 151.309 94.2459 152.765V160.702C94.2459 162.229 93.8754 163.517 93.1342 164.564C92.4253 165.612 91.2491 166.411 89.6057 166.961C87.9945 167.494 85.8194 167.76 83.0804 167.76H74.1382ZM79.6002 165.603H82.6937C84.6916 165.603 86.1094 165.39 86.9472 164.964C87.785 164.538 88.2845 163.916 88.4456 163.099C88.639 162.282 88.7356 161.297 88.7356 160.143V153.138C88.7356 152.019 88.6068 151.114 88.349 150.421C88.0912 149.729 87.5273 149.223 86.6572 148.903C85.7872 148.584 84.4176 148.424 82.5487 148.424H79.6002V165.603Z" fill="#A54344"/>
<path d="M99.9178 167.76V146.186H105.283V167.76H99.9178Z" fill="#A54344"/>
<path d="M111.617 167.76V146.186H115.339L126.456 160.516V146.186H131V167.76H127.52L116.258 153.031V167.76H111.617Z" fill="#A54344"/>
</svg>
