<svg width="115" height="111" viewBox="0 0 115 111" fill="none" xmlns="http://www.w3.org/2000/svg">
<path d="M57.3281 81.6906V111L95.8542 81.6906H57.3281Z" fill="#7E7E7E"/>
<path d="M57.3301 81.6906V111L19.2517 81.6906H57.3301Z" fill="#333333"/>
<path d="M57.3281 29.7305H19.2497V81.6881L27.2883 104.832L33.0333 100.323L54.0984 84.002L57.3281 81.6914V29.7305Z" fill="#333333"/>
<path d="M95.8555 29.7305H57.3291V81.6881H92.1582V84.4228L95.8555 81.6881V29.7305Z" fill="#333333"/>
<path d="M95.8555 29.7313V0.421875L57.3084 29.7313H95.8555Z" fill="#707070"/>
<path d="M57.3281 42.6073L54.1923 39.0547L54.0984 46.0327V68.0489L57.3281 68.3641V42.6073Z" fill="black"/>
<path d="M60.4668 39.0547L57.3309 42.6073V68.3641H60.4668V39.0547Z" fill="black"/>
<path d="M60.4668 42.6094L57.3309 44.6077L54.1951 42.6094L56.435 68.3662L58.2269 68.3662L60.4668 42.6094Z" fill="#E1E1E1"/>
<path d="M57.3281 29.7307L57.3279 0.421875L19.0277 29.7313L57.3281 29.7307Z" fill="#333333"/>
<path d="M92.1523 29.7305H84.9846V89.9454L92.1523 84.5187V29.7305Z" fill="#AFAFAF"/>
<path d="M85.1543 0L82.5212 2.08239L79.4476 4.70051V94.1516L85.1543 89.8803V0Z" fill="white"/>
<path d="M79.7324 4.48047L71.5936 11.1553V100.11L79.7324 93.9399V4.48047Z" fill="#E1E1E1"/>
<path d="M54.0996 2.88672L48.8333 6.8676V88.033L54.0996 83.9991V2.88672Z" fill="#939393"/>
<path d="M48.832 6.89062L40.6932 12.8558V93.915L48.832 87.7445V6.89062Z" fill="#E1E1E1"/>
<path d="M40.6934 28.4219L33.0333 33.5266V100.322L40.6934 94.4431V28.4219Z" fill="#333333"/>
<path d="M27.3105 27.0664H19.2469V110.998L23.2787 107.889L27.3105 104.83V27.0664Z" fill="#7E7E7E"/>
<path d="M62.2584 52.3827L90.0332 36.8398V53.5535L62.2584 68.8138V52.3827Z" fill="#7E7E7E"/>
<path d="M52.402 52.3774L24.7637 37.7227L24.5999 53.8261L52.402 68.8084L52.402 52.3774Z" fill="black"/>
<path d="M50.1632 55.9308L32.5703 49.2695L32.0677 54.663L49.7152 61.2598L50.1632 55.9308Z" fill="white"/>
<path d="M64.5209 56.1755L81.7324 49.0352L82.3866 54.4126L64.8947 61.4962L64.5209 56.1755Z" fill="black"/>
<path d="M103.56 15.0732L103.56 9.52202L107.951 6.19141L107.951 24.6246L60.4646 46.1588L60.4646 36.8331L103.56 15.0732Z" fill="black"/>
<path d="M107.951 17.5195L107.951 21.2936L60.465 42.6102L60.4649 39.0573L107.951 17.5195Z" fill="white"/>
<path d="M11.1416 15.8619L11.1416 10.6326L6.70703 7.74609L6.70711 25.3668L54.1933 46.16L54.1933 36.8064L32.6675 26.3341L11.1416 15.8619Z" fill="#7E7E7E"/>
<path d="M6.7074 18.1863L6.70812 21.9622L54.1903 42.6117L54.1907 39.0595L6.7074 18.1863Z" fill="white"/>
<path d="M60.461 68.0375L57.3297 68.0377L57.3194 72.0773L71.2608 78.1315L74.3565 74.0521L60.461 68.0375Z" fill="black"/>
<path d="M54.2008 68.0378L57.3312 68.0389L57.3313 72.078L43.3898 78.1322L40.3243 74.0924L54.2008 68.0378Z" fill="#7E7E7E"/>
<path d="M59.1232 75.9108L71.2188 78.1312L57.3313 71.9141L43.2199 78.1312L55.5394 75.9108L57.3313 78.1312L59.1232 75.9108Z" fill="white"/>
</svg>
