<svg width="49" height="43" viewBox="0 0 49 43" fill="none" xmlns="http://www.w3.org/2000/svg">
<path id="message_icon" d="M48.4755 4.3V4.30032L48.4993 41.8954L39.5298 34.0242L39.3883 33.9H39.2H4.9C2.41779 33.9 0.5 32.1295 0.5 30.1V4.3C0.5 2.2705 2.41779 0.5 4.9 0.5H44.1C46.5788 0.5 48.4755 2.26748 48.4755 4.3ZM39.2 26.3H39.7V25.8V21.5V21H39.2H9.8H9.3V21.5V25.8V26.3H9.8H39.2ZM39.2 19.85H39.7V19.35V15.05V14.55H39.2H9.8H9.3V15.05V19.35V19.85H9.8H39.2ZM39.2 13.4H39.7V12.9V8.6V8.1H39.2H9.8H9.3V8.6V12.9V13.4H9.8H39.2Z" fill="black" stroke="black"/>
</svg>
