<svg width="34" height="24" viewBox="0 0 34 24" fill="none" xmlns="http://www.w3.org/2000/svg">
<g id="python_icon" clip-path="url(#clip0_1367_77731)">
<path id="python2" d="M16.8416 0.09375C8.48433 0.0937504 9.00621 2.72955 9.00621 2.72955L9.01553 5.46021H16.9907V6.28009H5.84783C5.84783 6.28009 0.5 5.839 0.5 11.9718C0.499999 18.1046 5.1677 17.8871 5.1677 17.8871H7.95342V15.0412C7.95342 15.0412 7.80326 11.6465 12.5466 11.6465H20.4565C20.4565 11.6465 24.9006 11.6988 24.9006 8.52289V3.27162C24.9006 3.27162 25.5754 0.09375 16.8416 0.09375ZM12.4441 1.93C13.2376 1.93 13.8789 2.39641 13.8789 2.97348C13.8789 3.55055 13.2376 4.01696 12.4441 4.01696C11.6506 4.01696 11.0093 3.55055 11.0093 2.97348C11.0093 2.39641 11.6506 1.93 12.4441 1.93Z" fill="url(#paint0_linear_1367_77731)"/>
<path id="python1" d="M17.0789 23.9112C25.4362 23.9112 24.9143 21.2754 24.9143 21.2754L24.905 18.5448H16.9298V17.7249H28.0727C28.0727 17.7249 33.4205 18.166 33.4205 12.0332C33.4205 5.90042 28.7528 6.1179 28.7528 6.1179H25.9671V8.96375C25.9671 8.96375 26.1173 12.3584 21.3739 12.3584H13.464C13.464 12.3584 9.0199 12.3062 9.0199 15.4821V20.7334C9.0199 20.7334 8.34516 23.9112 17.0789 23.9112ZM21.4764 22.075C20.683 22.075 20.0416 21.6086 20.0416 21.0315C20.0416 20.4544 20.683 19.988 21.4764 19.988C22.2699 19.988 22.9112 20.4544 22.9112 21.0315C22.9112 21.6086 22.2699 22.075 21.4764 22.075Z" fill="url(#paint1_linear_1367_77731)"/>
</g>
<defs>
<linearGradient id="paint0_linear_1367_77731" x1="3.66373" y1="2.23607" x2="14.9864" y2="17.6494" gradientUnits="userSpaceOnUse">
<stop stop-color="#387EB8"/>
<stop offset="1" stop-color="#366994"/>
</linearGradient>
<linearGradient id="paint1_linear_1367_77731" x1="13.6774" y1="9.77886" x2="26.0126" y2="25.8125" gradientUnits="userSpaceOnUse">
<stop stop-color="#FFE052"/>
<stop offset="1" stop-color="#FFC331"/>
</linearGradient>
<clipPath id="clip0_1367_77731">
<rect width="33" height="24" fill="white" transform="translate(0.5)"/>
</clipPath>
</defs>
</svg>
