<svg width="32" height="32" viewBox="0 0 32 32" fill="none" xmlns="http://www.w3.org/2000/svg">
<g id="settings">
<path id="icon" d="M12.3329 29.3346L11.7996 25.068C11.5107 24.9569 11.2385 24.8235 10.9829 24.668C10.7274 24.5124 10.4774 24.3457 10.2329 24.168L6.26628 25.8346L2.59961 19.5013L6.03294 16.9013C6.01072 16.7457 5.99961 16.5957 5.99961 16.4513V15.5513C5.99961 15.4069 6.01072 15.2569 6.03294 15.1013L2.59961 12.5013L6.26628 6.16797L10.2329 7.83464C10.4774 7.65686 10.7329 7.49019 10.9996 7.33464C11.2663 7.17908 11.5329 7.04575 11.7996 6.93464L12.3329 2.66797H19.6663L20.1996 6.93464C20.4885 7.04575 20.7607 7.17908 21.0163 7.33464C21.2718 7.49019 21.5218 7.65686 21.7663 7.83464L25.7329 6.16797L29.3996 12.5013L25.9663 15.1013C25.9885 15.2569 25.9996 15.4069 25.9996 15.5513V16.4513C25.9996 16.5957 25.9774 16.7457 25.9329 16.9013L29.3663 19.5013L25.6996 25.8346L21.7663 24.168C21.5218 24.3457 21.2663 24.5124 20.9996 24.668C20.7329 24.8235 20.4663 24.9569 20.1996 25.068L19.6663 29.3346H12.3329ZM14.6663 26.668H17.2996L17.7663 23.1346C18.4552 22.9569 19.0941 22.6957 19.6829 22.3513C20.2718 22.0069 20.8107 21.5902 21.2996 21.1013L24.5996 22.468L25.8996 20.2013L23.0329 18.0346C23.1441 17.7235 23.2218 17.3957 23.2663 17.0513C23.3107 16.7069 23.3329 16.3569 23.3329 16.0013C23.3329 15.6457 23.3107 15.2957 23.2663 14.9513C23.2218 14.6069 23.1441 14.2791 23.0329 13.968L25.8996 11.8013L24.5996 9.53464L21.2996 10.9346C20.8107 10.4235 20.2718 9.99575 19.6829 9.6513C19.0941 9.30686 18.4552 9.04575 17.7663 8.86797L17.3329 5.33464H14.6996L14.2329 8.86797C13.5441 9.04575 12.9052 9.30686 12.3163 9.6513C11.7274 9.99575 11.1885 10.4124 10.6996 10.9013L7.39961 9.53464L6.09961 11.8013L8.96628 13.9346C8.85516 14.268 8.77739 14.6013 8.73294 14.9346C8.6885 15.268 8.66628 15.6235 8.66628 16.0013C8.66628 16.3569 8.6885 16.7013 8.73294 17.0346C8.77739 17.368 8.85516 17.7013 8.96628 18.0346L6.09961 20.2013L7.39961 22.468L10.6996 21.068C11.1885 21.5791 11.7274 22.0069 12.3163 22.3513C12.9052 22.6957 13.5441 22.9569 14.2329 23.1346L14.6663 26.668ZM16.0663 20.668C17.3552 20.668 18.4552 20.2124 19.3663 19.3013C20.2774 18.3902 20.7329 17.2902 20.7329 16.0013C20.7329 14.7124 20.2774 13.6124 19.3663 12.7013C18.4552 11.7902 17.3552 11.3346 16.0663 11.3346C14.7552 11.3346 13.6496 11.7902 12.7496 12.7013C11.8496 13.6124 11.3996 14.7124 11.3996 16.0013C11.3996 17.2902 11.8496 18.3902 12.7496 19.3013C13.6496 20.2124 14.7552 20.668 16.0663 20.668Z" fill="#1D1B20"/>
</g>
</svg>
