<svg width="27" height="28" viewBox="0 0 27 28" fill="none" xmlns="http://www.w3.org/2000/svg">
<path id="settings_icon" d="M9.8349 27.3333L9.30156 23.0666C9.01267 22.9555 8.74045 22.8222 8.4849 22.6666C8.22934 22.5111 7.97934 22.3444 7.7349 22.1666L3.76823 23.8333L0.101562 17.5L3.5349 14.9C3.51267 14.7444 3.50156 14.5944 3.50156 14.45V13.55C3.50156 13.4055 3.51267 13.2555 3.5349 13.1L0.101562 10.5L3.76823 4.16663L7.7349 5.83329C7.97934 5.65552 8.2349 5.48885 8.50156 5.33329C8.76823 5.17774 9.0349 5.0444 9.30156 4.93329L9.8349 0.666626H17.1682L17.7016 4.93329C17.9905 5.0444 18.2627 5.17774 18.5182 5.33329C18.7738 5.48885 19.0238 5.65552 19.2682 5.83329L23.2349 4.16663L26.9016 10.5L23.4682 13.1C23.4904 13.2555 23.5016 13.4055 23.5016 13.55V14.45C23.5016 14.5944 23.4793 14.7444 23.4349 14.9L26.8682 17.5L23.2016 23.8333L19.2682 22.1666C19.0238 22.3444 18.7682 22.5111 18.5016 22.6666C18.2349 22.8222 17.9682 22.9555 17.7016 23.0666L17.1682 27.3333H9.8349ZM12.1682 24.6666H14.8016L15.2682 21.1333C15.9571 20.9555 16.596 20.6944 17.1849 20.35C17.7738 20.0055 18.3127 19.5888 18.8016 19.1L22.1016 20.4666L23.4016 18.2L20.5349 16.0333C20.646 15.7222 20.7238 15.3944 20.7682 15.05C20.8127 14.7055 20.8349 14.3555 20.8349 14C20.8349 13.6444 20.8127 13.2944 20.7682 12.95C20.7238 12.6055 20.646 12.2777 20.5349 11.9666L23.4016 9.79996L22.1016 7.53329L18.8016 8.93329C18.3127 8.42218 17.7738 7.9944 17.1849 7.64996C16.596 7.30552 15.9571 7.0444 15.2682 6.86663L14.8349 3.33329H12.2016L11.7349 6.86663C11.046 7.0444 10.4071 7.30552 9.81823 7.64996C9.22934 7.9944 8.69045 8.41107 8.20156 8.89996L4.90156 7.53329L3.60156 9.79996L6.46823 11.9333C6.35712 12.2666 6.27934 12.6 6.2349 12.9333C6.19045 13.2666 6.16823 13.6222 6.16823 14C6.16823 14.3555 6.19045 14.7 6.2349 15.0333C6.27934 15.3666 6.35712 15.7 6.46823 16.0333L3.60156 18.2L4.90156 20.4666L8.20156 19.0666C8.69045 19.5777 9.22934 20.0055 9.81823 20.35C10.4071 20.6944 11.046 20.9555 11.7349 21.1333L12.1682 24.6666ZM13.5682 18.6666C14.8571 18.6666 15.9571 18.2111 16.8682 17.3C17.7793 16.3888 18.2349 15.2888 18.2349 14C18.2349 12.7111 17.7793 11.6111 16.8682 10.7C15.9571 9.78885 14.8571 9.33329 13.5682 9.33329C12.2571 9.33329 11.1516 9.78885 10.2516 10.7C9.35156 11.6111 8.90156 12.7111 8.90156 14C8.90156 15.2888 9.35156 16.3888 10.2516 17.3C11.1516 18.2111 12.2571 18.6666 13.5682 18.6666Z" fill="#D9D9D9"/>
</svg>
