<svg width="39" height="44" viewBox="0 0 39 44" fill="none" xmlns="http://www.w3.org/2000/svg">
<g id="sidebar_logo">
<path d="M19.4992 32.1459V43.5L34.3396 32.1459H19.4992Z" fill="#7E7E7E"/>
<path d="M19.5003 32.1459V43.5L4.8323 32.1459H19.5003Z" fill="#333333"/>
<path d="M19.4992 12.0169H4.83114V32.1446L7.92764 41.1102L10.1407 39.3636L18.2551 33.041L19.4992 32.1459V12.0169Z" fill="#333333"/>
<path d="M34.3406 12.0169H19.4992L19.5 32.1446H32.9164V33.204L34.3406 32.1446V12.0169Z" fill="#333333"/>
<path d="M34.3406 12.0169V0.663335L19.4921 12.0174L34.3406 12.0169Z" fill="#707070"/>
<path d="M19.4992 17.0062L18.2912 15.6299L18.2551 18.3331V26.8619L19.4992 26.984V17.0062Z" fill="black"/>
<path d="M20.7087 15.6299L19.5008 17.0062V26.984H20.7087V15.6299Z" fill="black"/>
<path d="M20.7087 17.0061L19.5008 17.7803L18.2928 17.0061L19.1556 26.984H19.8459L20.7087 17.0061Z" fill="#E1E1E1"/>
<path d="M19.4992 12.0169L19.4991 0.663335L4.74563 12.0174L19.4992 12.0169Z" fill="#333333"/>
<path d="M32.9139 12.0169H30.1529V35.3434L32.9139 33.2411V12.0169Z" fill="#AFAFAF"/>
<path d="M30.2184 0.5L29.2041 1.30669L28.0202 2.32092V36.9731L30.2184 35.3185V0.5Z" fill="white"/>
<path d="M28.1297 2.23529L24.9946 4.82104V39.2808L28.1297 36.8908V2.23529Z" fill="#E1E1E1"/>
<path d="M18.2554 1.61902L16.2268 3.16116V34.6036L18.2551 33.041L18.2554 1.61902Z" fill="#939393"/>
<path d="M16.2265 3.16897L13.0914 5.4798V36.8811L16.2265 34.4907V3.16897Z" fill="#E1E1E1"/>
<path d="M13.0914 11.5106L10.1407 13.4881L10.1407 39.3636L13.0914 37.0864V11.5106Z" fill="#333333"/>
<path d="M7.93618 10.9859H4.83001V43.4999L6.38309 42.2957L7.93618 41.1105V10.9859Z" fill="#7E7E7E"/>
<path d="M21.3985 20.7927L32.0975 14.7716V21.2462L21.3985 27.1579V20.7927Z" fill="#7E7E7E"/>
<path d="M17.6019 20.7903L6.95542 15.1133L6.89235 21.3515L17.6019 27.1555V20.7903Z" fill="black"/>
<path d="M16.739 22.1675L9.96215 19.587L9.76854 21.6764L16.5665 24.2319L16.739 22.1675Z" fill="white"/>
<path d="M22.2698 22.2619L28.8998 19.4958L29.1517 21.579L22.4138 24.3231L22.2698 22.2619Z" fill="black"/>
<path d="M37.3084 6.33975V4.1893L39 2.89906L39 10.0399L20.7079 18.3819L20.7079 14.7693L37.3084 6.33975Z" fill="black"/>
<path d="M39 7.2871L39 8.74913L20.708 17.0069L20.7087 15.6299L39 7.2871Z" fill="white"/>
<path d="M1.70832 6.64538V4.61964L9.42991e-05 3.50143L0.000126401 10.3274L18.2921 18.3825V14.759L1.70832 6.64538Z" fill="#7E7E7E"/>
<path d="M0 7.54457L0.000275625 9.00733L18.2907 17.0067L18.2912 15.6299L0 7.54457Z" fill="white"/>
<path d="M20.7064 26.8572L19.5002 26.8572L19.4963 28.4221L24.8666 30.7674L26.059 29.1871L20.7064 26.8572Z" fill="black"/>
<path d="M18.2945 26.8569L19.5002 26.8572L19.5004 28.422L14.1301 30.7673L12.9492 29.2023L18.2945 26.8569Z" fill="#7E7E7E"/>
<path d="M20.1904 29.907L24.8497 30.7671L19.5001 28.3587L14.0643 30.7671L18.8099 29.907L19.5001 30.7671L20.1904 29.907Z" fill="white"/>
</g>
</svg>
