<svg width="18" height="18" viewBox="0 0 18 18" fill="none" xmlns="http://www.w3.org/2000/svg">
<path d="M9.24022 8.75122L9.25568 8.73361L9.26504 8.71212L9.78684 7.51364H10.0439L13.565 11.3045H11.4013L9.19963 8.79744L9.24022 8.75122ZM8.54036 7.51364H9.45964L9 8.56935L8.54036 7.51364ZM8.75978 8.75122L8.80037 8.79744L6.59869 11.3045H4.43574L7.96867 7.51364H8.21316L8.73496 8.71212L8.74432 8.73361L8.75978 8.75122ZM6.7793 11.5535L9 9.02476L11.2207 11.5535L11.2655 11.6045H11.3334H13.9091H14.2531L14.019 11.3525L10.2192 7.26155L10.1747 7.21364H10.1093H9.91746H9.68855H8.31145H8.08254H7.90342H7.83817L7.79369 7.26137L3.98117 11.3523L3.74608 11.6045H4.09091H6.66659H6.73449L6.7793 11.5535ZM17.85 9C17.85 13.8877 13.8877 17.85 9 17.85C4.11228 17.85 0.15 13.8877 0.15 9C0.15 4.11228 4.11228 0.15 9 0.15C13.8877 0.15 17.85 4.11228 17.85 9Z" stroke="black" stroke-width="0.3"/>
</svg>
