<svg width="30" height="25" viewBox="0 0 30 25" fill="none" xmlns="http://www.w3.org/2000/svg">
<g id="Formatting">
<path id="Vector" d="M23.7885 20.5V22.5H6.92578V20.5H23.7885ZM20.1751 13.715C20.1354 14.375 19.8994 15.0165 19.4882 15.5823C19.077 16.1481 18.5033 16.6205 17.8185 16.9572C17.1337 17.294 16.3591 17.4847 15.5639 17.5122C14.7686 17.5397 13.9776 17.4033 13.2614 17.115C12.4358 16.8185 11.7358 16.3241 11.2508 15.6952C10.7658 15.0663 10.5181 14.3315 10.5392 13.585V5.505H8.13026V13.715C8.17101 14.6564 8.47818 15.5766 9.0269 16.4012C9.57562 17.2257 10.3505 17.9314 11.2887 18.4611C12.227 18.9908 13.3023 19.3296 14.4276 19.4502C15.5529 19.5707 16.6966 19.4696 17.7661 19.155C19.1887 18.7613 20.423 18.0012 21.2895 16.985C22.156 15.9689 22.6095 14.7498 22.584 13.505V5.505H20.1751V13.715ZM20.1751 5.5H22.584H20.1751ZM10.5392 5.5H8.13026H10.5392Z" fill="black"/>
</g>
</svg>
